<svg xmlns="http://www.w3.org/2000/svg" viewBox="0 0 512 512"><g id="_x31_1_Free_Shipping"><g><path d="m114.125 132.363c4.182 0 7.575-3.39 7.575-7.575 0-4.184-3.393-7.575-7.575-7.575h-46.794c-4.182 0-7.575 3.39-7.575 7.575 0 4.184 3.393 7.575 7.575 7.575z"></path><path d="m114.371 164.415h-23.498c-4.182 0-7.575 3.39-7.575 7.575 0 4.184 3.393 7.575 7.575 7.575h23.498c4.182 0 7.575-3.39 7.575-7.575s-3.393-7.575-7.575-7.575z"></path><path d="m6.029 219.188c0 4.184 3.393 7.575 7.575 7.575h99.865c4.182 0 7.575-3.39 7.575-7.575 0-4.184-3.393-7.575-7.575-7.575h-99.865c-4.182 0-7.575 3.39-7.575 7.575z"></path><path d="m84.236 258.811c-4.182 0-7.575 3.39-7.575 7.575 0 4.184 3.393 7.575 7.575 7.575h29.524c4.182 0 7.575-3.39 7.575-7.575 0-4.184-3.393-7.575-7.575-7.575z"></path><path d="m121.364 313.587c0-4.184-3.393-7.575-7.575-7.575h-41.63c-4.182 0-7.575 3.39-7.575 7.575 0 4.184 3.393 7.575 7.575 7.575h41.631c4.181-.001 7.574-3.391 7.574-7.575z"></path><path d="m502.133 113.048-170.883-99.58c-2.323-1.364-5.252-1.364-7.625 0l-170.832 99.581c-2.222 1.313-3.838 3.787-3.838 6.615v199.111c0 2.727 1.414 5.201 3.737 6.565l28.834 16.765c-.656 4.999-.202 1.111-.354 78.271 0 20.401 16.614 37.015 37.015 37.015h70.444l26.612 34.893c3.535 4.595 8.938 7.272 14.745 7.272 5.858 0 11.21-2.676 14.745-7.322l26.612-34.843h70.393c20.401 0 37.014-16.613 37.014-37.065-.252-76.705.606-74.433-.707-80.896l24.138-14.089c2.323-1.363 3.787-3.838 3.787-6.565v-199.112c.001-2.475-1.514-5.252-3.837-6.616zm-174.67-84.28 155.784 90.845-64.687 37.671-155.784-90.794zm-140.837 298.793-22.522-13.129v-181.689l155.784 90.794v86.199h-101.651c-13.382 0-25.097 7.17-31.611 17.825zm71.555 37.974h-21.613v14.947h17.472c4.191 0 7.575 3.383 7.575 7.575 0 4.191-3.383 7.575-7.575 7.575h-17.472v13.533c0 4.191-3.384 7.575-7.575 7.575s-7.575-3.383-7.575-7.575v-51.205c0-4.191 3.383-7.575 7.575-7.575h29.187c4.191 0 7.575 3.383 7.575 7.575 0 4.141-3.383 7.575-7.574 7.575zm59.435 49.891c-3.434 2.373-8.181 1.464-10.504-2.02l-14.29-21.108h-2.071v16.866c0 4.191-3.383 7.575-7.575 7.575s-7.575-3.383-7.575-7.575v-51.204c0-4.191 3.383-7.575 7.575-7.575h15.806c11.564 0 20.956 9.392 20.956 20.956 0 7.776-4.343 14.543-10.705 18.128l10.402 15.452c2.374 3.486 1.465 8.182-2.019 10.505zm9.847-205.019-155.835-90.794 76.099-44.387 155.835 90.845zm41.559 165.581c4.191 0 7.575 3.383 7.575 7.575 0 4.191-3.383 7.575-7.575 7.575h-17.472v10.453h21.613c4.141 0 7.575 3.383 7.575 7.575 0 4.191-3.434 7.575-7.575 7.575h-29.188c-4.191 0-7.575-3.383-7.575-7.575v-51.206c0-4.191 3.384-7.575 7.575-7.575h29.188c4.141 0 7.575 3.383 7.575 7.575 0 4.141-3.434 7.575-7.575 7.575h-21.613v10.453zm57.769 0c4.191 0 7.575 3.383 7.575 7.575 0 4.191-3.383 7.575-7.575 7.575h-17.472v10.453h21.613c4.191 0 7.575 3.383 7.575 7.575 0 4.191-3.383 7.575-7.575 7.575h-29.188c-4.191 0-7.575-3.383-7.575-7.575v-51.206c0-4.191 3.384-7.575 7.575-7.575h29.188c4.191 0 7.575 3.383 7.575 7.575 0 4.141-3.383 7.575-7.575 7.575h-21.613v10.453zm64.031-61.556-18.886 11.008c-6.716-9.494-17.725-15.705-30.197-15.705h-106.701v-86.199l76.251-44.438v40.095c0 4.191 3.383 7.575 7.575 7.575 4.191 0 7.575-3.384 7.575-7.575v-48.932l64.384-37.519v181.69z"></path><path d="m304.79 371.342c0 3.181-2.575 5.807-5.807 5.807h-8.231v-11.614h8.231c3.231 0 5.807 2.575 5.807 5.807z"></path></g></g><g id="Layer_1"></g></svg>