<svg xmlns="http://www.w3.org/2000/svg" viewBox="0 0 512 512"><g id="_x30_6_Received"><g><path d="m325.792 394.327v.038s.038-.038.076-.076c-.038 0-.038 0-.076.038zm129.915-64.538c-12.892-9.383-30.476-7.133-40.66 4.577l-4.844 5.607-6.98-4.768c-13.808-9.345-32.154-7.552-43.864 3.852l-5.874-3.662c-12.625-7.857-29.065-5.569-39.058 5.416l-33.909 37.38-42.567-11.214c-3.585-.915-6.942-2.632-9.65-4.92-21.055-17.889-45.695-26.09-73.234-24.373-3.166.191-5.531 2.899-5.34 6.065.191 3.128 2.937 5.531 6.065 5.34 24.793-1.564 46.115 5.569 65.148 21.703 4.005 3.395 8.887 5.912 14.113 7.247 77.468 20.712 74.989 18.995 79.414 21.856 6.98 4.463 10.413 13.121 7.705 21.436-3.09 9.727-13.159 15.181-23 12.358l-59.121-16.783c-3.738-1.03-7.629-1.564-11.634-1.526-3.166.038-5.683 2.632-5.683 5.798.038 3.166 2.556 5.76 5.798 5.645 2.899 0 5.721.343 8.391 1.106l59.121 16.783c15.867 4.501 32.116-4.31 37.037-19.91.992-2.975 1.449-6.065 1.449-9.193v-.381l24.259-1.373c1.526-.076 2.975-.801 3.967-1.945h.038c21.284-24.488 31.659-36.426 52.714-60.609h.038l8.163-9.421c6.255-7.247 17.202-8.697 25.251-2.823 8.887 6.484 10.337 19.148 3.128 27.463l-55.498 64.118c-3.814 4.425-8.353 7.934-13.579 10.527l-97.913 48.556c-11.824 5.874-25.518 6.217-37.609 1.03l-89.788-38.562c-2.899-1.259-6.293.076-7.514 2.975-1.259 2.899.076 6.294 2.975 7.514l89.788 38.562c15.219 6.561 32.421 6.065 47.221-1.259l97.913-48.556c6.599-3.28 12.358-7.743 17.164-13.274l55.498-64.118c11.553-13.348 9.226-33.793-5.039-44.244zm-139.489 58.13c-4.005-1.678-4.92-1.526-23.229-6.446l29.904-32.994c6.294-6.866 16.592-8.315 24.526-3.357l4.157 2.594zm39.517 14.647-23.61 1.335c-1.488-3.547-3.662-6.751-6.37-9.498l.038-.038s.038-.038.076-.076v-.038c.038-.038.076-.076.114-.115l.038-.038.153-.153c0-.038 0-.038.076-.076v-.038c1.907-2.174 10.108-11.443 39.707-45.123 7.743-8.964 21.017-10.68 30.819-4.043l5.836 3.967z"></path><path d="m114.404 313.044h-59.579c-13.121 0-23.839 10.718-23.839 23.839v140.328c0 13.159 10.718 23.839 23.839 23.839h59.579c13.159 0 23.839-10.68 23.839-23.839v-140.327c.001-13.122-10.679-23.84-23.839-23.84zm-29.789 78.079c-13.045 0-23.687-10.642-23.687-23.725 0-13.045 10.642-23.649 23.687-23.649s23.687 10.604 23.687 23.649c0 13.083-10.642 23.725-23.687 23.725z"></path><path d="m96.859 367.398c0 6.789-5.493 12.282-12.244 12.282s-12.244-5.493-12.244-12.282c0-6.713 5.493-12.206 12.244-12.206s12.244 5.493 12.244 12.206z"></path><path d="m373.09 287.603-13.541-134.759c-.61-6.065-5.607-10.604-11.71-10.604h-26.204v-19.377c0-20.521-16.668-37.227-37.189-37.227-8.201 0-15.753 2.67-21.894 7.171-6.79-4.539-14.914-7.171-23.649-7.171-23.458 0-42.568 19.109-42.568 42.606v13.998h-18.347c-5.988 0-10.947 4.463-11.557 10.413l-14.799 141.892c-.725 6.828 4.653 12.816 11.557 12.816h192.05c10.641 0 18.918-9.231 17.851-19.758zm-88.645-190.524c14.189 0 25.746 11.557 25.746 25.784v19.377h-28.684v-13.998c0-10.527-3.814-20.14-10.146-27.577 3.816-2.251 8.278-3.586 13.084-3.586zm-25.784 25.785c0-5.302 1.602-10.26 4.348-14.342 4.424 5.378 7.056 12.244 7.056 19.72v13.998h-11.405v-19.376zm-50.883 5.378c0-17.202 13.96-31.163 31.125-31.163 5.607 0 10.832 1.487 15.371 4.081-4.424 6.103-7.056 13.579-7.056 21.703v19.377h-39.44zm-44.78 167.485 14.99-142.044h18.347v16.211c0 3.166 2.556 5.721 5.721 5.721 3.166 0 5.721-2.556 5.721-5.721v-16.211h62.287v16.211c0 3.166 2.555 5.721 5.721 5.721s5.721-2.556 5.721-5.721v-16.211h36.655l-14.838 142.235zm169.584.191h-17.737l14.838-142.235h2.899z"></path><path d="m268.103 54.942v-43.06c0-3.161-2.561-5.721-5.721-5.721-3.161 0-5.721 2.561-5.721 5.721v43.06c0 3.161 2.561 5.721 5.721 5.721s5.721-2.56 5.721-5.721z"></path><path d="m386.53 108.735 30.447-30.447c2.235-2.233 2.235-5.857 0-8.09-2.235-2.235-5.856-2.235-8.09 0l-30.447 30.447c-2.235 2.233-2.235 5.857 0 8.09 2.235 2.235 5.855 2.235 8.09 0z"></path><path d="m426.513 224.795c0 3.161 2.561 5.721 5.721 5.721h43.058c3.161 0 5.721-2.561 5.721-5.721 0-3.161-2.561-5.721-5.721-5.721h-43.058c-3.16 0-5.721 2.561-5.721 5.721z"></path><path d="m49.469 230.517h43.06c3.161 0 5.721-2.561 5.721-5.721 0-3.161-2.561-5.721-5.721-5.721h-43.06c-3.161 0-5.721 2.561-5.721 5.721-.001 3.16 2.56 5.721 5.721 5.721z"></path><path d="m146.321 100.645-30.447-30.447c-2.235-2.235-5.856-2.235-8.09 0-2.235 2.233-2.235 5.857 0 8.09l30.447 30.447c2.235 2.235 5.855 2.235 8.09 0 2.235-2.233 2.235-5.857 0-8.09z"></path></g></g><g id="Layer_1"></g></svg>