<svg xmlns="http://www.w3.org/2000/svg" viewBox="0 0 512 512" id="Layer_1"><path d="m145.7 269.6 26.6 15v36.3l-26.6-15zm78.1 44-40.4-22.7v39.5c.1 4.1-4.7 7-8.3 4.8 0 0-37.7-21.2-37.7-21.2-1.8-1-2.8-2.8-2.8-4.8v-45.8l-40.3-22.7v148l129.5 74.8zm138.3 75.1v-147.9l-127.2 72.7v148.6zm-51.5-176.5-121.1 69.3 39.8 22.4 127.6-72.9-39.3-22.7zm-31-25.8-128.5 73.6 27.1 15.2 128.1-73.3c-2.4-1.4-23.7-13.7-26.7-15.5zm-179.9 44.6c10 5.6 30.2 17 40.2 22.6l128.6-73.6-40.3-23.2zm333.3-83.2c-40.8-63.4-114.3-105.5-189.4-109.3-2.9-.2-5.1-2.6-5.1-5.5v-32l-92.6 59.9 92.6 59.9v-28.3c0-3.1 2.6-5.7 5.7-5.5 84.1.2 163.1 60.2 187.4 140.6 27.6 81.3-4.9 175.7-71.9 227.5-101.2 79.3-255 46.9-318.8-63.9 75.6 143 272 161 375.3 37.9 66.8-78.8 73-194.8 16.8-281.3z"></path></svg>