<svg xmlns="http://www.w3.org/2000/svg" width="512" viewBox="0 0 64 64" height="512"><g data-name="Layer 2" id="Layer_2"><path fill="rgb(0,0,0)" d="m56.322 27.505-3.968-3.969a.75.75 0 0 0 -1.061 0l-3.439 3.439-2.9-2.9 3.44-3.439a.751.751 0 0 0 0-1.06l-3.97-3.969a.75.75 0 0 0 -1.061 0l-3.438 3.438-2.9-2.9 3.439-3.439a.75.75 0 0 0 0-1.061l-3.969-3.968a.772.772 0 0 0 -1.06 0l-3.435 3.439-3.431-3.43a.772.772 0 0 0 -1.06 0l-3.96 3.96a.75.75 0 0 0 0 1.061l3.43 3.43-2.909 2.908-3.429-3.429a.75.75 0 0 0 -1.061 0l-3.961 3.96a.751.751 0 0 0 0 1.06l3.43 3.43-2.908 2.909-3.43-3.43a.75.75 0 0 0 -1.061 0l-3.959 3.96a.749.749 0 0 0 0 1.06l3.426 3.435-3.439 3.44a.749.749 0 0 0 0 1.06l3.968 3.969a.75.75 0 0 0 1.061 0l3.439-3.439 2.9 2.9-3.44 3.439a.751.751 0 0 0 0 1.06l3.97 3.969a.75.75 0 0 0 1.061 0l3.438-3.438 2.9 2.9-3.439 3.439a.75.75 0 0 0 0 1.061l3.969 3.969a.751.751 0 0 0 1.06 0l3.44-3.439 3.43 3.43a.748.748 0 0 0 1.06 0l3.96-3.96a.75.75 0 0 0 0-1.061l-3.43-3.43 2.909-2.908 3.429 3.429a.75.75 0 0 0 1.061 0l3.961-3.96a.751.751 0 0 0 0-1.06l-3.43-3.43 2.908-2.909 3.43 3.43a.75.75 0 0 0 1.061 0l3.959-3.96a.749.749 0 0 0 0-1.06l-3.43-3.43 3.439-3.44a.749.749 0 0 0 0-1.066zm-44.145 11.368-2.908-2.908 2.908-2.909 2.908 2.909zm30.149-6.373-2.4 2.4-2.9-2.9 2.908-2.9 2.9 2.9zm-18.26 2.4-2.9-2.9 2.909-2.9 2.9 2.9zm10.834-10.834-2.9 2.909-2.9-2.9 2.909-2.908zm-2.9 18.767-2.9-2.9 2.9-2.908 2.9 2.9-2.4 2.4zm3.969-3.969-10.833-10.829 2.9-2.9 10.828 10.83-1.449 1.45zm7.925-21.664 2.906 2.906-3.438 3.438-3.96 3.96-3.438 3.439-2.908-2.909 3.439-3.434 1.98-1.981zm-10.837-5.023 2.908-2.909 2.908 2.909-2.908 2.908zm-5.022-2.9 10.829 10.829-1.449 1.45-1.45 1.45-3.43-3.43-1.985-1.985-5.414-5.414zm-10.829 10.829 2.9-2.9 2.9 2.9-2.9 2.9zm3.428 4.494 3.96-3.961 3.441-3.439 1.455 1.454 1.454 1.454-3.439 3.439-3.96 3.96-3.439 3.439-2.906-2.911zm-11.357 3.435 2.9-2.9 10.829 10.83-2.9 2.9zm10.829 18.765-2.906-2.906 3.438-3.438 3.96-3.96 3.438-3.439 2.908 2.909-3.439 3.434-1.98 1.981zm7.929 7.93-2.908-2.909 2.908-2.908 2.909 2.908zm7.93-.009-3.429-3.429-3.97-3.969-3.429-3.43 1.449-1.45 1.45-1.45 10.828 10.83zm10.829-10.827-2.9 2.9-2.9-2.9 2.9-2.9zm-3.428-4.494-3.966 3.964-3.435 3.436-2.908-2.908 5.418-5.419 1.98-1.98 3.439-3.439 2.906 2.911zm8.457-.538-10.829-10.827 2.9-2.9 10.829 10.83zm0-7.92-2.908-2.909 2.908-2.908 2.908 2.908z"></path></g></svg>